<?xml version="1.0" encoding="utf-8"?>
<!-- Generator: Adobe Illustrator 19.0.0, SVG Export Plug-In . SVG Version: 6.00 Build 0)  -->
<svg version="1.1" id="Layer_1" xmlns="http://www.w3.org/2000/svg" xmlns:xlink="http://www.w3.org/1999/xlink" x="0px" y="0px"
	 viewBox="0 0 612 792" style="enable-background:new 0 0 612 792;" xml:space="preserve">
<style type="text/css">
	.st0{fill:#010101;}
	.st1{fill:#FFFFFF;}
	.st2{fill:#F9F9FA;}
	.st3{fill:#F7F8F8;}
	.st4{fill:#E0E1E0;}
	.st5{fill:#2B4B4B;}
	.st6{fill:#1C2323;}
	.st7{fill:#FFD664;}
	.st8{fill:#F89747;}
	.st9{stroke:#000000;stroke-miterlimit:10;}
	.st10{font-family:'CenturyGothic';}
	.st11{font-size:22.5001px;}
	.st12{stroke:#222428;stroke-miterlimit:10;}
	.st13{fill:#F68B69;}
	.st14{fill:#F0DF9E;}
	.st15{fill:#676767;}
	.st16{font-size:23.0712px;}
	.st17{font-size:19.0247px;}
	.st18{fill:#9FD9DC;}
	.st19{fill:#80C8E2;stroke:#000000;stroke-miterlimit:10;}
	.st20{fill:#468987;}
	.st21{fill:#468987;stroke:#000000;stroke-miterlimit:10;}
	.st22{font-family:'MyriadPro-Regular';}
	.st23{font-size:36px;}
</style>
<g id="XMLID_1_">
	<g id="XMLID_2_">
		<g id="XMLID_17_">
			<path id="XMLID_18_" class="st0" d="M302.8,74.4c-164.6,0-298,135.2-298,302c0,166.8,133.4,302,298,302
				c164.6,0,298-135.2,298-302C600.8,209.6,467.4,74.4,302.8,74.4z M386.1,520.1L386.1,520.1c0,32.5-37.3,58.9-83.4,58.9
				c-46,0-83.4-26.3-83.4-58.9c0-6.3,46.3-192.5,46.3-192.5C240,314,222.3,287,222.3,255.6c0-45.2,36-81.8,80.7-81.8
				c44.6,0,80.5,36.6,80.5,81.8c0,31.5-17.6,58.5-43.3,72.1c0,0,45.6,185.7,45.8,191.2l0.3,1.3L386.1,520.1z"/>
		</g>
		<g id="XMLID_16_">
		</g>
		<g id="XMLID_15_">
		</g>
		<g id="XMLID_14_">
		</g>
		<g id="XMLID_13_">
		</g>
		<g id="XMLID_12_">
		</g>
		<g id="XMLID_11_">
		</g>
		<g id="XMLID_10_">
		</g>
		<g id="XMLID_9_">
		</g>
		<g id="XMLID_8_">
		</g>
		<g id="XMLID_7_">
		</g>
		<g id="XMLID_6_">
		</g>
		<g id="XMLID_5_">
		</g>
		<g id="XMLID_4_">
		</g>
		<g id="XMLID_3_">
		</g>
		<g id="XMLID_21_">
		</g>
	</g>
	<g id="XMLID_91_">
		<g id="XMLID_128_">
			<g id="XMLID_129_">
				<path id="XMLID_137_" class="st0" d="M359.7,487.7c-1.2-5.4-2.8-12.6-3.8-18c0-0.2-0.1-0.4-0.2-0.6c-0.1-1.2-1-2.3-2.2-2
					c-15.7,3.7-31.7,6.1-47.6,9.3c-1.3,0.3-1.6,1.8-1.2,2.9c0,0.2,0,0.5,0.1,0.7c4.8,22.6,12,55,16.5,77.6c0.1,0.5,0.3,0.9,0.6,1.2
					c0.3,0.9,1.1,1.7,2.1,1.4c6.8-1.6,13.6-3.1,20.4-4.9c6-1.6,13.7-2.6,19.1-6.2c1.9-1.3,3.5-2.9,4.7-5c2.2-3.9,2.3-8.5,1.6-13.2
					c-0.7-4.5-2-9.2-3-13.3C364.4,507.1,362.2,498.3,359.7,487.7z M357.8,530.1c-1.1,0.2-2,1.5-1.2,3c1.6,3,2.9,6.9,2,10.3
					c-1.1,4.1-4.5,4.7-7.5,5.8c-1.9,0.7-4,0.9-5.9,1.4c-1.5,0.4-20.6,4.8-20.6,4.9c-4.4-21.8-11.4-53.3-16-75.1
					c14.6-2.9,29.4-5.2,43.9-8.5c3.5,17.9,10.1,43.5,13,57.6c-2.4-0.4-4.9-0.3-7.2,0.4C358.1,529.9,358,530,357.8,530.1z
					 M362.3,544.7c0.9-3.3,0.5-7-1.1-10.9c1.8-0.3,3.6-0.2,5.4,0.3c0,0,0,0,0,0.1C367.1,539,365.2,542.4,362.3,544.7z"/>
				<path id="XMLID_134_" class="st0" d="M319.4,500.5c-0.7,0.2-1.1,0.8-1.2,1.4c-0.3,0.4-0.4,1-0.3,1.7c1.2,5.9,3.1,11.5,5.1,17.2
					c1,2.7,4.3,0.8,3.3-1.9c-0.7-2-1.4-3.9-2-5.9c2.9-0.7,5.3-3,4.4-7.2C327.7,500.9,322.9,499.3,319.4,500.5z M325,507.1
					c0,0.3,0,0.4-0.3,0.8c-0.3,0.5-1.1,0.7-1.8,0.8c-0.4-1.4-0.7-2.8-1.1-4.2c0.5,0,1.1,0.1,1.6,0.3c0.7,0.3,1.1,0.8,1.4,1.5
					c0,0,0.1,0.4,0.1,0.4c0,0.1,0,0.1,0,0.1C325.1,506.9,325,507,325,507.1z"/>
				<path id="XMLID_133_" class="st0" d="M341.7,495.7c-0.4-2.9-4.1-2.1-3.7,0.7c0.4,2.6,1,5.1,1.6,7.6c-1.6,0.5-3.2,1.1-4.8,1.6
					c0,0,0,0-0.1,0c-0.9-2.6-1.8-5.1-2.8-7.6c-1.1-2.7-4.4-0.8-3.3,1.9c2.1,5.1,3.7,10.4,5.3,15.8c0.8,2.7,4.5,2,3.7-0.7
					c-0.5-1.7-1-3.4-1.5-5.1c1.6-0.5,3.1-1,4.7-1.6c0.6,2.1,1.2,4.1,1.9,6.2c0.8,2.7,4.5,2,3.7-0.7
					C344.6,507.8,342.6,501.9,341.7,495.7z"/>
				<path id="XMLID_130_" class="st0" d="M354.5,498c-1.4-4.2-5.5-5.9-8.9-5c-0.9,0.2-1.3,1-1.4,1.8c-0.1,0.3-0.1,0.6,0,1
					c1,5.6,2.5,11,4.1,16.4c0.8,2.7,4.5,2,3.7-0.7c-0.5-1.7-1-3.4-1.4-5C353.7,505.3,355.9,502.2,354.5,498z M349.5,502.1
					c-0.4-1.6-0.8-3.2-1.1-4.8c1,0.2,2,0.8,2.5,2C351.6,500.7,350.7,501.6,349.5,502.1z"/>
			</g>
		</g>
		<g id="XMLID_127_">
		</g>
		<g id="XMLID_126_">
		</g>
		<g id="XMLID_125_">
		</g>
		<g id="XMLID_124_">
		</g>
		<g id="XMLID_123_">
		</g>
		<g id="XMLID_122_">
		</g>
		<g id="XMLID_121_">
		</g>
		<g id="XMLID_120_">
		</g>
		<g id="XMLID_119_">
		</g>
		<g id="XMLID_118_">
		</g>
		<g id="XMLID_117_">
		</g>
		<g id="XMLID_116_">
		</g>
		<g id="XMLID_115_">
		</g>
		<g id="XMLID_114_">
		</g>
		<g id="XMLID_92_">
		</g>
	</g>
	<g id="XMLID_141_">
		<g id="XMLID_181_">
			<g id="XMLID_182_">
				<path id="XMLID_183_" d="M289.9,398.9c-0.4,0.2-0.5,0.9-0.2,1.6c0.3,0.7,0.9,1.1,1.4,0.8c0.4-0.2,0.5-0.9,0.2-1.6
					C290.9,399,290.3,398.6,289.9,398.9z"/>
			</g>
		</g>
		<g id="XMLID_178_">
			<g id="XMLID_179_">
				<path id="XMLID_180_" d="M271.7,407.9l-2,1c-0.4,0.2-0.5,0.9-0.2,1.6c0.3,0.7,0.9,1.1,1.4,0.8l2-1c0.4-0.2,0.5-0.9,0.2-1.6
					C272.7,408,272.1,407.7,271.7,407.9z"/>
			</g>
		</g>
		<g id="XMLID_175_">
			<g id="XMLID_176_">
				<path id="XMLID_177_" d="M266.6,410.4c-0.4,0.2-0.5,0.9-0.2,1.6c0.3,0.7,0.9,1.1,1.4,0.8c0.4-0.2,0.5-0.9,0.2-1.6
					C267.7,410.5,267.1,410.2,266.6,410.4z"/>
			</g>
		</g>
		<g id="XMLID_172_">
			<g id="XMLID_173_">
				<path id="XMLID_174_" d="M281.7,402.9c-0.4,0.2-0.5,0.9-0.2,1.6c0.3,0.7,0.9,1.1,1.4,0.8c0.4-0.2,0.5-0.9,0.2-1.6
					C282.8,403.1,282.2,402.7,281.7,402.9z"/>
			</g>
		</g>
		<g id="XMLID_157_">
			<g id="XMLID_158_">
				<path id="XMLID_159_" d="M298,389.3c0,0-14.2-11.3-14.2-11.3c-0.3-0.2-0.6-0.3-0.9-0.2l-23.9,11.8c-0.2,0.1-0.4,0.4-0.4,0.8
					l0.4,18.1c0,0.3,0.1,0.5,0.2,0.8l4.8,9.8c0.1,0.3,0.4,0.5,0.6,0.7l36.5,26.4c0.3,0.2,0.6,0.3,0.8,0.1c0.2-0.1,0.4-0.4,0.4-0.7
					l1.1-45c0-0.3-0.1-0.6-0.2-0.9l-4.8-9.8C298.4,389.7,298.2,389.5,298,389.3z M284.8,381.3l10.8,8.6l-9.8,4.9L284.8,381.3z
					 M282.9,381l1,13.5l-10.1-9L282.9,381z M286,403.8l1.3-0.6l1.2,2.4l-10.5,5.2l-3.6-7.3l10.5-5.2l1.2,2.4l-1.3,0.6
					c-0.4,0.2-0.5,0.9-0.2,1.6C285,403.7,285.6,404,286,403.8z M283,396.2l-9.2,4.5l-1-13.5L283,396.2z M270.9,386.9l1,13.5l-10.1-9
					L270.9,386.9z M260.8,393.1l10.2,9l-9.9,4.9L260.8,393.1z M261.5,409.9l11.3-5.6l3.6,7.3l-11.3,5.6L261.5,409.9z M267.3,419.2
					l10.6-5.2l19.6,27.1L267.3,419.2z M299.2,440.5l-19.7-27.3l10-4.9L299.2,440.5z M300.7,439.4l-9.7-32l10.6-5.2L300.7,439.4z
					 M298.8,394.4l-5.9,2.9c-0.4,0.2-0.5,0.9-0.2,1.6c0.3,0.7,0.9,1.1,1.4,0.8l5.9-2.9l1.2,2.4l-11.2,5.6l-3.6-7.3l11.2-5.6
					L298.8,394.4z"/>
			</g>
		</g>
		<g id="XMLID_156_">
		</g>
		<g id="XMLID_155_">
		</g>
		<g id="XMLID_154_">
		</g>
		<g id="XMLID_153_">
		</g>
		<g id="XMLID_152_">
		</g>
		<g id="XMLID_151_">
		</g>
		<g id="XMLID_150_">
		</g>
		<g id="XMLID_149_">
		</g>
		<g id="XMLID_148_">
		</g>
		<g id="XMLID_147_">
		</g>
		<g id="XMLID_146_">
		</g>
		<g id="XMLID_145_">
		</g>
		<g id="XMLID_144_">
		</g>
		<g id="XMLID_143_">
		</g>
		<g id="XMLID_142_">
		</g>
	</g>
	<path id="XMLID_238_" class="st1" d="M388.8,239c-5.3-16.9-2.2-35.4,8.2-46.8c5.5-6,12.1-9.6,18.9-11.7c13-4.1,23.3,7.1,33.9,15.9
		c0.8,0.6,1.6,1.4,1.8,2.7c0.1,1.1-0.3,2.2-0.8,3.1c-2.5,4.8-8.2,17.4-13.2,16.1c-1.5-0.4-2.9-1.7-4.2-3c-6.6-6.6-13.3-16-22.1-11.9
		c-4.8,2.2-8.6,8.5-8.8,15.5c-0.2,5.1,1.5,10.1,3.5,14.3c4,8.4,9.9,15.2,16.5,19.2c11.4,6.8,28.2,8.9,31.7,29.2
		c1.6,9.3,0.2,19.1-1.8,28.2c-7,33.3-34.9,27.3-53.9,20.4c-4.2-1.5-9-4.6-9.3-10.6c-0.1-2.5,0.6-4.9,1.4-7.2
		c1.8-5.4,4.3-11.4,8.6-12.4c2-0.5,4,0.3,5.9,1.4c5.6,3,10.7,8.1,16.6,10.3c5.8,2.2,13.2,0.6,16.1-6.8c2.1-5.4,1.3-12.3-1.1-17.4
		c-3.2-6.8-8.5-10.6-13.7-13.8C410.3,265.7,394.9,258.2,388.8,239z"/>
	<path id="XMLID_239_" class="st1" d="M549.5,223.3c4.9-6.6-6.8-22-9.9-26c-33.3-41.7-75.4,5.5-79.8,52.7
		c-2.3,24.7,4.3,52.6,17.9,70.7c10,13.3,25.3,18.2,39.1,12.4c11.7-4.9,30.6-23,31.6-39.9c0.6-10-9.9-8.1-14.9-8.7
		c-7-0.8-7.4,6-9.2,12.6c-2.3,8.4-6.7,15.5-13.7,18.1c-15.4,5.7-25-12.8-30.3-28.1c-9.3-27-3.6-59.8,16.3-76.3
		c5.7-4.7,13.2-9.1,20.2-8.1c10.4,1.5,8.7,11.6,14.3,19.5c3.6,5.1,8.8,4.1,13.6,3.4c1.4-0.2,2.9-0.5,4.1-1.6
		C549.1,223.8,549.3,223.5,549.5,223.3z"/>
	<path id="XMLID_240_" class="st2" d="M-443.2,166.1"/>
	<g id="XMLID_22_">
		<g id="XMLID_37_">
			<path id="XMLID_44_" d="M264.7,230.5c-0.5-1.5-1.8-2-3.6-1.4c-0.7,0.3-1.2,0.5-1.4,0.7l1.7,4.8c0.3,0,0.7-0.1,1.2-0.3
				C264.5,233.6,265.3,232.2,264.7,230.5z"/>
			<path id="XMLID_38_" d="M288.4,213.4l-1.4,0.5l-2.4-6.8c0,0,0-0.1-0.1-0.1c-0.1-0.3-0.3-0.5-0.5-0.7l-15.6-9c0,0,0,0,0,0
				c-0.1-0.1-0.2-0.1-0.3-0.1c0,0-0.1,0-0.1,0c-0.1,0-0.2,0-0.3,0c0,0,0,0-0.1,0c-0.1,0-0.2,0-0.3,0.1l-27.1,9.6
				c-1.2,0.4-1.9,1.8-1.4,3.1l6.6,18.7l-1.4,0.5c-1.8,0.6-2.7,2.6-2.1,4.4l6,17.1c0.6,1.8,2.6,2.8,4.4,2.2l1.4-0.5l4.1,11.7
				c0.4,1.3,1.8,1.9,3.1,1.5l37.1-13.1c1.2-0.4,1.9-1.8,1.4-3.1l-4.1-11.7l1.4-0.5c1.8-0.6,2.7-2.6,2.1-4.4l-6-17.1
				C292.2,213.8,290.2,212.8,288.4,213.4z M297.1,249.5L260,262.5l-3.9-11.1l37.1-13.1L297.1,249.5L297.1,249.5z M260.9,244.4
				l-5.6-16c1-0.6,2.5-1.3,4.7-2c2.2-0.8,3.9-0.9,5.3-0.4c1.3,0.5,2.4,1.6,3,3.1c0.6,1.6,0.5,3.1-0.1,4.4c-0.8,1.6-2.4,2.8-4.5,3.5
				c-0.5,0.2-0.9,0.3-1.2,0.4l2,5.8L260.9,244.4z M267,224.1l4.1-1.4l3,3.3c0.9,1,1.5,1.7,2.3,2.7l0,0c0-1.1,0-2.2,0.1-3.5l0.2-4.4
				l4-1.4l-1.9,11.3l2.4,6.7l-3.6,1.3l-2.3-6.6L267,224.1z M284.8,214.7l-37.1,13.1l-6.6-18.7l26-9.2l4.1,11.8
				c0.2,0.6,0.9,1,1.5,0.8l9.9-3.5L284.8,214.7z"/>
		</g>
		<g id="XMLID_36_">
		</g>
		<g id="XMLID_35_">
		</g>
		<g id="XMLID_34_">
		</g>
		<g id="XMLID_33_">
		</g>
		<g id="XMLID_32_">
		</g>
		<g id="XMLID_31_">
		</g>
		<g id="XMLID_30_">
		</g>
		<g id="XMLID_29_">
		</g>
		<g id="XMLID_28_">
		</g>
		<g id="XMLID_27_">
		</g>
		<g id="XMLID_26_">
		</g>
		<g id="XMLID_25_">
		</g>
		<g id="XMLID_24_">
		</g>
		<g id="XMLID_23_">
		</g>
		<g id="XMLID_45_">
		</g>
	</g>
	<g id="XMLID_46_">
		<path id="XMLID_72_" class="st3" d="M344.1,256.2c0.7-2.2-1.1-4.2-3-3.2c-5.6,2.7-6.6,5.4-10.2,4.2c-3.6-1.2-2.8-3.8-5.8-9.4
			c-1-1.9-3.6-1.3-4.3,0.9c-2.8,8.8-8.6,8.7-11.9,18.9c-0.3,0.9-0.2,1.8,0.2,2.5c0.1,0.1,0.2,0.4,0,1.2c-3.3,12-0.2,18.6-5.5,22
			c-1.5,1-1.8,3.2-0.7,4.4c2.8,3,7.4,5.7,12.6,7.4c5.2,1.7,10.5,2.2,14.5,1.3c1.6-0.3,2.6-2.4,2-4c-2.3-5.8,4.1-9.4,8.4-21.1
			c0.3-0.8,0.6-0.9,0.7-0.9c0.7-0.3,1.4-1,1.6-1.9C346,268.3,341.3,264.9,344.1,256.2z"/>
		<path id="XMLID_71_" class="st4" d="M344.1,256.2c0.7-2.2-1.1-4.2-3-3.2c-5.6,2.7-6.6,5.4-10.2,4.2L315.5,305
			c5.2,1.7,10.5,2.2,14.5,1.3c1.6-0.3,2.6-2.4,2-4c-2.3-5.8,4.1-9.4,8.4-21.1c0.3-0.8,0.6-0.9,0.7-0.9c0.7-0.3,1.4-1,1.6-1.9
			C346,268.3,341.3,264.9,344.1,256.2z"/>
		<path id="XMLID_70_" class="st5" d="M359.1,244.5c4.1-14.7-2.2-26-14.4-29.9c-12.2-3.9-23.9,1.5-29.2,15.9
			c-6.4,17.4-19.3,22.1-18.3,40.9c0.1,2.8,5.9,6.3,7.4,0c0.6-2.4,3.8-2.5,4.5-1.3c1.1,1.7,3.5,1.1,4.2-1c2.7-8.3,8.5-8.4,11.9-18.9
			c0.3-0.8,0.2-1.7-0.2-2.3c-0.5-0.9-1.1-2-1.9-3.2c0.7,0,1.5,0.1,2.3,0.1c1.9,0.1,3.4-2.2,2.6-4.1c-0.5-1.3-0.5-3.2,0.1-5.1
			c0.8-2.5,2.9-5,4.4-4.5c1.5,0.5,1.8,3.7,0.9,6.3c-0.4,1.2-1,2.3-1.7,3.1c-2.4,0.9-2.5,4.7-0.2,5.3c1.8,0.4,3.5,1,5.3,1.7
			c2.2,0.9,4.4-2.3,2.9-4.4c-0.1-1.1,0.1-2.3,0.5-3.5c0.8-2.5,2.9-5,4.4-4.5c1.5,0.5,1.8,3.7,0.9,6.3c-0.6,1.9-1.7,3.5-2.9,4.2
			c-1.7,1.1-1.9,3.9-0.3,4.8c0.7,0.4,1.3,0.8,1.9,1.2c-1.3,0.5-2.4,1-3.4,1.5c-0.7,0.3-1.2,1-1.5,1.8c-3.4,10.5,1.3,13.9-1.4,22.3
			c-0.7,2.2,1,4.1,2.8,3.3c1.2-0.5,3.9,1.5,2.9,3.7c-2.5,6,4.3,6.5,6,4.3C361.8,273.7,354.1,262.4,359.1,244.5z"/>
		<path id="XMLID_69_" class="st6" d="M359.1,244.5c4.1-14.7-2.2-26-14.4-29.9l-10.2,31.8c0.9,0.3,1.7,0.6,2.6,1
			c2.2,0.9,4.4-2.3,2.9-4.4c-0.1-1.1,0.1-2.3,0.5-3.5c0.8-2.5,2.9-5,4.4-4.5c1.5,0.5,1.8,3.7,0.9,6.3c-0.6,1.9-1.7,3.5-2.9,4.2
			c-1.7,1.1-1.9,3.9-0.3,4.8c0.7,0.4,1.3,0.8,1.9,1.2c-1.3,0.5-2.4,1-3.4,1.5c-0.7,0.3-1.2,1-1.5,1.8c-3.4,10.5,1.3,13.9-1.4,22.3
			c-0.7,2.2,1,4.1,2.9,3.3c1.2-0.5,3.9,1.5,2.9,3.7c-2.5,6,4.3,6.5,6,4.3C361.8,273.7,354.1,262.4,359.1,244.5z"/>
		<path id="XMLID_68_" class="st3" d="M346.5,229.7c-2.6-0.8-5.5,0.4-7.7,3.1c-0.3-3.5-1.9-6.2-4.5-7c-3.9-1.3-8.6,2.3-10.6,8.4
			c-1.1,3.3-1.1,6.7,0,9.3c0.3,0.8,1,1.3,1.8,1.4c2.2,0.2,4,0.4,6.5,1c0.7,0.2,1.5-0.1,2.1-0.6c0.4-0.4,0.8-0.7,1.1-1.2
			c0,0.6,0.1,1.1,0.2,1.6c0.2,0.8,0.7,1.4,1.3,1.7c2.3,1,3.9,1.8,5.9,3c0.7,0.4,1.5,0.4,2.3-0.1c2.4-1.5,4.3-4.2,5.4-7.5
			C352.2,236.5,350.4,230.9,346.5,229.7z"/>
		<path id="XMLID_67_" class="st4" d="M346.5,229.7c-2.6-0.8-5.5,0.4-7.7,3.1l-3.6,11.3c0,0.6,0.1,1.1,0.2,1.6
			c0.2,0.8,0.7,1.4,1.3,1.7c2.3,1,3.9,1.8,5.9,3c0.7,0.4,1.5,0.4,2.3-0.1c2.4-1.5,4.3-4.2,5.4-7.5
			C352.2,236.5,350.4,230.9,346.5,229.7z"/>
		<path id="XMLID_66_" class="st7" d="M313.7,272.4c1.7-6-2.9-9.7-8-8.2c-2.2,0.6-3.9,2.1-5,4.2c-1.6-1.4-4.5-3.6-8-1.4
			c-3.5,2.2-3.8,6.2-3.9,8.8c-4.7-0.4-9,5.3-8.6,10.2c0.2,2.4,1.5,4.2,3.6,5.1c6.5,2.5,9.7,6.9,14,8.3c2.4,0.8,4.9,0.5,7.9-1.4
			C314.1,292.5,310.5,283.9,313.7,272.4z"/>
		<path id="XMLID_65_" class="st8" d="M354.3,296.8c1.5-2.1,3.6-5.5,2-9.4c-1.6-3.9-5.2-3.8-7.3-3.6c0.3-2.3-0.2-4.5-1.6-6.3
			c-3.2-4.2-9.2-3.8-11.3,2c-4.2,11.3-12.2,16.1-8.3,25.7c1.3,3.3,3.2,4.8,5.5,5.5c4.3,1.4,9.5-0.3,16.2,1.4l0,0
			c2.2,0.6,4.3-0.2,5.9-2C358.5,306.4,358.4,299.2,354.3,296.8z"/>
		<path id="XMLID_64_" class="st7" d="M347.3,246.7c-7.1-4.8-14.6-7.3-23.4-7.5c-4.1-0.1-6.8,5.4-4.6,9c2.1,3.4,2.6,4.7,3.5,6.9
			c1.1,3,2.3,6.1,6.5,7.4c4.2,1.4,7-0.5,9.6-2.3c1.9-1.3,3.1-2.1,6.9-3.6C349.7,255,350.6,249,347.3,246.7z"/>
		<path id="XMLID_63_" class="st8" d="M347.3,246.7c-3.6-2.4-7.2-4.3-11.2-5.5l-6.9,21.3c4.2,1.4,7-0.5,9.6-2.3
			c1.9-1.3,3.1-2.1,6.9-3.6C349.7,255,350.6,249,347.3,246.7z"/>
		
			<ellipse id="XMLID_62_" transform="matrix(0.3065 -0.9519 0.9519 0.3065 11.7406 492.8622)" class="st6" cx="344.1" cy="238.4" rx="2.9" ry="2.5"/>
		
			<ellipse id="XMLID_61_" transform="matrix(0.3065 -0.9519 0.9519 0.3065 6.7582 477.7365)" class="st5" cx="331.2" cy="234.2" rx="2.9" ry="2.5"/>
		<g id="XMLID_60_">
		</g>
		<g id="XMLID_59_">
		</g>
		<g id="XMLID_58_">
		</g>
		<g id="XMLID_57_">
		</g>
		<g id="XMLID_56_">
		</g>
		<g id="XMLID_55_">
		</g>
		<g id="XMLID_54_">
		</g>
		<g id="XMLID_53_">
		</g>
		<g id="XMLID_52_">
		</g>
		<g id="XMLID_51_">
		</g>
		<g id="XMLID_50_">
		</g>
		<g id="XMLID_49_">
		</g>
		<g id="XMLID_48_">
		</g>
		<g id="XMLID_47_">
		</g>
		<g id="XMLID_73_">
		</g>
	</g>
	<text id="XMLID_74_" transform="matrix(0.8689 -0.2446 0.271 0.9626 238.5393 555.5412)"><tspan x="0" y="0" class="st9 st10 st11">$ mkdir</tspan><tspan x="77.8" y="0" class="st12 st10 st11"> </tspan></text>
	<g id="XMLID_75_">
		<path id="XMLID_195_" class="st13" d="M279.4,522.7c0.7-0.7,14.7-15.2,12.1-27.3c-2.7-12.4-12.5-6.8-8.7-0.8
			C286.1,499.8,288.1,513.1,279.4,522.7z M250.1,517.8c-1.2-1.3-2.3-2.7-3.3-4.3l-0.1,0.2c-19.5-8.6-16.1-24.9-16.1-24.9
			c3.3,3.5,6.1,1.9,6.1,1.9c-3.7-4.2-1.6-11.8-1.6-11.8c2.4,3.3,6.7,2.1,6.7,2.1c-3.6-1.9-1.5-11.1-1.5-11.1s5.2,9.6,10.3,0.1
			c0.1-0.2,0.2-0.4,0.3-0.6c0.6-1.2,1.3-2.4,2-3.5c1.3-2.1,2.7-3.9,4.2-5.5c1.9-2.1,4-3.8,6.1-5c1.7-1,3.6-1.8,5.4-2.3
			c3.9-1,8-0.9,12.3,0.5c4.3,1.3,7.8,3.6,10.4,6.6c1,1.2,1.9,2.6,2.7,4c0.2,0.3,0.3,0.6,0.5,1c1.1,2.3,1.8,4.8,2.2,7.6
			c0.3,2.2,0.4,4.5,0.3,6.9c0,1.3-0.2,2.6-0.3,4c0,0.2-0.1,0.5-0.1,0.7c-1.2,10.7,8.6,5.7,8.6,5.7s-3.5,8.6-7.6,8.2
			c0,0,2.9,3.4,6.7,2.1c0,0-2.6,7.5-8.1,8.8c0,0,1.4,2.9,6.1,1.9c0,0-6.5,15.3-27.4,11.2l0-0.2c-1.7,0.7-3.4,1.3-5.2,1.7
			c-3.4,0.7-6.9,0.6-10.3-0.4c-0.1,0-0.2-0.1-0.3-0.1c-0.1,0-0.2-0.1-0.3-0.1C255.5,522.3,252.6,520.4,250.1,517.8z M243,511.3
			c-1.8-12.9,7.5-22.7,13.2-25c6.6-2.7,1.7-13-7.6-4.3C239.6,490.5,242.9,510.4,243,511.3z M281.3,483.6c3-2.8,8.5-8.4,3.7-8.4
			c-2.7,0-4.9,1.3-6.5,2.7c-1.9,1.6-2.1,5-0.3,6.2C279.1,484.7,280.3,484.5,281.3,483.6z M266,480.2c2.1,0,3.9-2.8,3.2-5.2
			c-0.6-2.1-1.7-4.4-3.9-5.9c-3.9-2.7-2.5,5.1-1.7,9C264,479.4,264.9,480.2,266,480.2z"/>
		<path id="XMLID_194_" class="st14" d="M259.5,523.6c3.7,1.2,7.4,1.4,10.3,0.4c2.8-1,5-3,6-6.4c2.2-6.9-1.9-16.9-9.2-19.2
			s-15.7,3.8-17.8,10.7c-1,3.4-0.4,6.3,1.3,8.7C252,520.3,255.8,522.4,259.5,523.6"/>
		<path id="XMLID_193_" class="st15" d="M264.1,506.7c-2.2-0.7-4.3-0.3-4.9,1.8c-0.6,2.1,0.4,5,2.6,5.7l0.7,0.2
			c2.2,0.7,4.7-1.1,5.3-3.2s-0.8-3.6-3-4.3L264.1,506.7z"/>
		<path id="XMLID_192_" class="st13" d="M311.8,456.6c2.2,5.4-5,17-9.9,21c-1.6,1.2-3.2,2-4.8,2.2c0.1-2.4,0-4.8-0.3-6.9l0,0
			c1,0.1,2.1-0.2,3.2-1c2.2-1.8,5.4-6.9,4.4-9.3c-1-2.4-5.8-1.2-8,0.6c-0.7,0.6-1.3,1.3-1.7,2.1c-0.2-0.3-0.3-0.7-0.5-1
			c-0.8-1.5-1.7-2.8-2.7-4c0.7-0.9,1.5-1.7,2.3-2.4C298.7,453.9,309.5,451.2,311.8,456.6z"/>
		<g id="XMLID_187_">
			<path id="XMLID_191_" class="st14" d="M304.3,462.5c1,2.4-2.2,7.6-4.4,9.3c-1,0.8-2.2,1.1-3.2,1l0,0c-0.4-2.8-1.1-5.4-2.2-7.6
				c0.4-0.8,1-1.6,1.7-2.1C298.5,461.3,303.3,460.1,304.3,462.5z"/>
			<path id="XMLID_190_" class="st14" d="M291.4,495.4c2.6,12.1-11.4,26.6-12.1,27.3c8.8-9.6,6.7-22.9,3.4-28.1
				C278.9,488.6,288.8,483,291.4,495.4z"/>
			<path id="XMLID_189_" class="st14" d="M285.1,475.2c4.7-0.1-0.8,5.6-3.7,8.4c-1,0.9-2.2,1.1-3.1,0.5c-1.8-1.2-1.6-4.5,0.3-6.2
				C280.2,476.5,282.4,475.3,285.1,475.2z"/>
			<path id="XMLID_188_" class="st14" d="M269.2,475c0.6,2.4-1.1,5.3-3.2,5.2c-1.1,0-2-0.9-2.3-2.2c-0.9-3.9-2.2-11.7,1.7-9
				C267.6,470.6,268.7,472.9,269.2,475z"/>
		</g>
		<path id="XMLID_186_" class="st13" d="M268.1,449.8c0.3,1.1,0.5,2.2,0.6,3.3c-1.9,0.5-3.7,1.3-5.4,2.3c0.1-0.9,0.1-1.9-0.2-2.7
			c-0.8-2.7-4.1-6.4-6.3-5c-2.2,1.4-2.5,7.5-1.7,10.2c0.4,1.3,1.1,2.2,2,2.6c-1.5,1.6-2.9,3.4-4.2,5.5l0,0c-1.2-1.1-2.1-2.7-2.7-4.6
			c-1.8-6.1-1.2-19.7,3.8-22.9C258.9,435.3,266.3,443.8,268.1,449.8z"/>
		<g id="XMLID_113_">
			<path id="XMLID_185_" class="st14" d="M248.6,482c9.2-8.7,14.2,1.5,7.6,4.3c-5.7,2.4-15,12.2-13.2,25
				C242.9,510.4,239.6,490.5,248.6,482z"/>
			<path id="XMLID_184_" class="st14" d="M263.1,452.7c0.3,0.9,0.3,1.8,0.2,2.7c-2.2,1.3-4.2,3-6.1,5c-0.9-0.5-1.7-1.4-2-2.6
				c-0.8-2.7-0.5-8.8,1.7-10.2C259,446.2,262.2,450,263.1,452.7z"/>
		</g>
		<path id="XMLID_104_" class="st0" d="M229,488.6c0,0.2-0.9,4.8,0.8,10.5c2.3,7.3,7.7,12.9,16.1,16.6c0.9,1.4,1.9,2.7,3,3.8
			c1.5,1.9,4,3.7,7,5.1c0.7,0.3,1.5,0.6,2.2,0.9c0.1,0,0.2,0.1,0.4,0.1c0.1,0,0.2,0.1,0.3,0.1c0,0,0,0,0.1,0
			c4.1,1.3,7.9,1.4,11.1,0.4c1.5-0.3,3.1-0.8,4.6-1.4c9,1.7,16.7,0.2,22.7-4.5c4.7-3.6,6.6-7.9,6.6-8.1c0.3-0.7,0.3-1.5,0-2.1
			c-0.3-0.6-0.9-0.9-1.5-0.7c-0.8,0.2-1.4,0.2-2,0.2c3.6-3,5.4-8,5.5-8.2c0.3-0.7,0.2-1.5-0.2-2.1c-0.4-0.5-0.9-0.8-1.6-0.6
			c-0.8,0.3-1.6,0.3-2.4,0.1c2.7-2.6,4.6-6.9,4.8-7.6c0.3-0.8,0.3-1.7-0.1-2.3c-0.4-0.6-1.1-0.7-1.7-0.4c-1,0.5-4.3,1.7-5.7,0.4
			c-0.7-0.7-1-2.1-0.7-4.2c0-0.2,0.1-0.5,0.1-0.7c0.1-0.8,0.2-1.5,0.2-2.3c1.4-0.4,2.7-1.2,4-2.2c2.8-2.2,6-6.4,8.3-10.7
			c2.8-5.4,3.7-10.1,2.4-13.2c-1.3-3.1-4.6-4.5-9.4-3.8c-3.8,0.5-8.1,2.3-10.9,4.5c-0.5,0.4-1,0.8-1.4,1.3c-0.2-0.2-0.5-0.5-0.7-0.7
			c-0.7-0.6-1.8-0.4-2.4,0.6c-0.6,1-0.6,2.3,0.1,2.9c0.6,0.5,1.1,1.1,1.6,1.6c1,1.1,1.8,2.4,2.5,3.7c0.1,0.3,0.3,0.6,0.4,0.9
			c1,2.1,1.6,4.5,2,7.1c0.3,2,0.4,4.2,0.3,6.5c0,1.2-0.1,2.5-0.3,3.8c0,0.2-0.1,0.4-0.1,0.7c0,0,0,0,0,0.1c-0.4,3.6,0.2,6.2,1.8,7.7
			c1.4,1.3,3.2,1.4,4.8,1.2c-1.1,1.6-2.4,3-3.6,2.9c-0.7-0.1-1.5,0.5-1.9,1.3c-0.4,0.9-0.3,1.9,0.2,2.4c0.1,0.1,2,2.4,5,2.8
			c-1.1,1.8-2.8,3.8-5.1,4.4c-0.6,0.1-1.1,0.7-1.4,1.3c-0.3,0.7-0.3,1.5,0,2c0.1,0.3,1.2,2.4,4.1,2.9c-0.8,1-1.9,2.2-3.4,3.3
			c-3.4,2.6-7.6,4-12.4,4.2c1.4-1.7,3.1-4,4.7-6.6c4.6-7.4,6.4-14.3,5.2-19.9c-1.2-5.5-3.9-8.7-7.3-8.7c-2.1,0-4,1.4-5,3.5
			c-1,2.2-0.8,4.6,0.6,6.7c2.8,4.4,4.9,16.2-2.7,24.8c-0.7-0.1-1.5-0.2-2.3-0.3c0.4-0.8,0.8-1.6,1-2.5c1.2-4,0.8-8.8-1.1-13.1
			c-2-4.3-5.3-7.5-9-8.6c-8.3-2.6-17.6,4.5-20,12.3c-0.3,0.9-0.5,1.8-0.6,2.6c-0.7-0.3-1.4-0.7-2.1-1c-1.3-11.4,7-19.9,11.9-21.9
			c2.3-1,3.9-2.9,4.3-5.2c0.4-2.3-0.4-4.5-2.1-5.7c-2.8-2-6.9-0.9-11,3c-4.2,3.9-6.7,10.6-7.1,19.3c-0.2,3.1,0,5.9,0.1,8.1
			c-3.8-2.9-6.5-6.5-7.8-10.5c-0.6-1.7-0.8-3.3-0.9-4.6c2.7,1.3,4.7,0.2,5,0c0.6-0.3,1-1,1.1-1.7c0.2-0.7,0-1.4-0.4-1.9
			c-1.6-1.8-1.8-4.4-1.7-6.5c2.7,1.3,5.5,0.6,5.7,0.5c0.7-0.2,1.4-1,1.5-1.9c0.2-0.9-0.1-1.8-0.8-2.1c-1.1-0.6-1.3-2.5-1.3-4.4
			c1.2,1.1,2.8,2,4.7,1.7c2.2-0.3,4.2-2.1,5.9-5.3c0,0,0,0,0-0.1c0.1-0.2,0.2-0.4,0.3-0.6c0.6-1.2,1.2-2.3,1.9-3.3
			c1.2-1.9,2.5-3.7,3.9-5.2c1.8-1.9,3.7-3.5,5.7-4.7c1.6-0.9,3.3-1.7,5-2.1c3.7-1,7.6-0.8,11.6,0.4c0.9,0.3,1.8-0.4,2.2-1.6
			c0.4-1.1-0.1-2.3-0.9-2.6c-3.9-1.2-7.8-1.5-11.5-0.8c-0.1-0.6-0.3-1.3-0.4-1.9c-1-3.4-3.5-7.3-6.4-9.9c-3.6-3.3-7.1-4.1-9.9-2.2
			c-2.8,1.8-4.8,6.2-5.5,12.2c-0.6,4.8-0.3,10.1,0.7,13.5c0.5,1.5,1.2,2.9,2,4c-0.4,0.6-0.8,1.3-1.1,2c-0.1,0.2-0.2,0.4-0.3,0.6
			c-1,1.8-2,2.8-3,3c-1.9,0.3-4-2.6-4.5-3.6c-0.3-0.6-1-0.9-1.7-0.7c-0.7,0.2-1.2,0.9-1.4,1.8c-0.2,0.7-1.1,5.3-0.4,9
			c-0.7-0.3-1.3-0.7-1.9-1.4c-0.4-0.5-1-0.7-1.6-0.4c-0.6,0.2-1.1,0.9-1.3,1.6c-0.1,0.3-1.4,5.3-0.2,9.9c-0.5-0.3-1-0.7-1.5-1.3
			c-0.4-0.5-1-0.5-1.6-0.2C229.6,487.2,229.1,487.9,229,488.6z M293.9,460.1c0.2-0.2,0.4-0.4,0.6-0.5c2.3-1.8,6-3.3,9.2-3.8
			c3.4-0.5,5.9,0.3,6.6,2c0.7,1.7-0.1,5-2.1,8.9c-1.9,3.6-4.7,7.3-7,9.1c-0.8,0.6-1.6,1.1-2.4,1.4c0-0.8,0-1.7-0.1-2.5
			c0.7-0.2,1.3-0.6,2-1.1c1.4-1.1,2.9-3.1,4-5.2c1.5-2.8,1.9-5.3,1.2-7.1c-0.7-1.8-2.5-2.5-5-2.2c-1.9,0.3-3.9,1.1-5.3,2.2
			c-0.2,0.2-0.4,0.3-0.6,0.5C294.6,461.2,294.3,460.7,293.9,460.1z M296.6,465.2c0.1-0.1,0.3-0.3,0.4-0.4c0.9-0.7,2.4-1.3,3.7-1.5
			c1.4-0.2,2,0.2,2.1,0.4c0.1,0.2,0,1.2-0.8,2.7c-0.8,1.4-1.9,2.9-2.8,3.6c-0.3,0.3-0.7,0.4-1,0.6
			C297.8,468.7,297.3,466.9,296.6,465.2z M284.1,493.1c-0.5-0.8-0.7-1.6-0.5-2.1c0.2-0.4,0.8-0.9,1.6-0.9c0.2,0,0.5,0,0.8,0.1
			c1.4,0.4,3,2.2,3.8,6c0.9,4.1-0.6,8.7-2.7,12.8c0.1-0.8,0.1-1.6,0.2-2.3C287.5,500.6,285.8,495.7,284.1,493.1z M266,500.5
			c6.5,2,10.1,11,8.3,16.6c-0.7,2.4-2.2,3.9-4.6,4.8c-3.3,0.7-6.5,0.5-9.6-0.4c-0.9-0.3-1.8-0.6-2.7-1c-2.2-1-4.3-2.5-6.1-4.4
			c-1.4-2-1.8-4.1-1-6.5C252.2,503.9,259.5,498.5,266,500.5z M249.5,483.6c2.9-2.7,5.1-3.2,6.5-2.8c0.3,0.1,0.5,0.2,0.7,0.3
			c0.7,0.5,0.9,1.2,0.8,1.6c-0.1,0.5-0.7,1.1-1.6,1.5c-2.8,1.2-7,4.3-10.4,9.4c-0.4,0.6-0.8,1.3-1.2,2
			C245,491.1,246.4,486.5,249.5,483.6z M257.2,457.9c-0.2-0.3-0.4-0.6-0.5-1c-0.3-1.1-0.4-2.9-0.2-4.6c0.2-1.8,0.7-2.6,0.9-2.7
			c0.2-0.1,0.9-0.1,2,0.9c1,0.9,1.8,2.2,2.2,3.3c0.1,0.2,0.1,0.4,0.1,0.5C260.1,455.3,258.6,456.5,257.2,457.9z M251.8,460.4
			c-0.8-2.8-1.1-7.4-0.6-11.5c0.5-4.3,1.8-7.5,3.3-8.5c1.6-1,4-0.2,6.5,2.1c2.4,2.2,4.6,5.6,5.4,8.4c0.1,0.3,0.1,0.5,0.2,0.8
			c-0.6,0.2-1.3,0.5-1.9,0.8c-0.1-0.3-0.1-0.5-0.2-0.8c-0.5-1.7-1.7-3.5-3.1-4.8c-1.9-1.7-3.8-2.1-5.4-1c-1.6,1-2.7,3.3-3.1,6.5
			c-0.3,2.4-0.1,4.9,0.4,6.6c0.2,0.8,0.6,1.4,1,2c-0.5,0.6-1,1.3-1.5,2C252.5,462.2,252.1,461.3,251.8,460.4z"/>
		<path id="XMLID_103_" class="st0" d="M287.1,453.9c-0.2-0.1-0.4-0.2-0.6-0.3c-0.8-0.4-1.8,0.1-2.3,1.2c-0.5,1.1-0.2,2.3,0.6,2.8
			c0.2,0.1,0.3,0.2,0.5,0.3c0.1,0.1,0.2,0.1,0.3,0.1c0.7,0.2,1.6-0.3,2.1-1.2C288.1,455.6,287.9,454.4,287.1,453.9z"/>
		<path id="XMLID_100_" class="st0" d="M254.4,517.4l0.4,0.1c2.1,0.6,4.4,0.3,6.5-0.9c1.1,2.2,2.8,3.8,4.9,4.4l0.4,0.1
			c0.9,0.3,1.8-0.4,2.2-1.6c0.4-1.1-0.1-2.3-0.9-2.6l-0.4-0.1c-0.6-0.2-1.2-0.5-1.7-1c1.6-0.8,3-2.4,3.6-4.3c1-3.1-0.6-5.8-3.9-6.8
			l-0.7-0.2c-3.3-1-6.1,0.3-7.1,3.4c-0.6,1.9-0.3,3.9,0.5,5.5c-0.7,0.1-1.4,0-2-0.2l-0.4-0.1c-0.9-0.3-1.8,0.4-2.2,1.6
			C253.2,516,253.6,517.1,254.4,517.4z M263.4,508.7l0.7,0.2c1.5,0.5,2.2,1.3,2.1,1.7c-0.3,0.8-1.8,2.1-3.1,1.6l-0.7-0.2
			c-1.4-0.4-1.9-2.3-1.7-3.1C260.8,508.6,261.9,508.3,263.4,508.7z"/>
		<path id="XMLID_99_" class="st0" d="M262.9,487.1c-2-0.6-4.2,1-5.1,3.6c-0.4,1.1,0.1,2.3,0.9,2.6c0.9,0.3,1.8-0.4,2.2-1.6
			c0.1-0.3,0.4-0.5,0.6-0.5c0.3,0.1,0.4,0.4,0.3,0.7c-0.4,1.1,0.1,2.3,0.9,2.6c0.9,0.3,1.8-0.4,2.2-1.6
			C265.8,490.4,264.9,487.8,262.9,487.1z"/>
		<path id="XMLID_96_" class="st0" d="M270.8,474c-0.8-3-2.3-5.3-4.5-6.9c-1.9-1.4-3.2-0.7-4,0.1c-1.2,1.2-2.1,3.6-0.3,11.7
			c0.4,1.7,1.4,2.9,2.7,3.3c0.3,0.1,0.6,0.1,1,0.2c1.6,0,3.2-1,4.2-2.7C271,477.9,271.3,475.8,270.8,474z M267.4,477.4
			c-0.1,0.2-0.5,0.7-1.1,0.7c0,0,0,0,0,0c-0.5,0-0.8-0.4-0.9-0.9c-0.7-3.1-0.9-5.1-0.9-6.2c1.5,1.1,2.6,2.8,3.2,4.9
			C267.8,476.6,267.5,477.2,267.4,477.4z"/>
		<path id="XMLID_95_" class="st0" d="M271.7,495.1c-0.4,1.1,0.1,2.3,0.9,2.6s1.8-0.4,2.2-1.6c0.1-0.3,0.4-0.5,0.6-0.5
			c0.2,0.1,0.4,0.4,0.3,0.7c-0.4,1.1,0.1,2.3,0.9,2.6c0.9,0.3,1.8-0.4,2.2-1.6c0.8-2.6-0.1-5.2-2.1-5.9
			C274.8,490.8,272.5,492.5,271.7,495.1z"/>
		<path id="XMLID_90_" class="st0" d="M288.5,475.4c-0.2-1.1-0.9-2.3-3.2-2.3c-2.6,0-5.2,1.1-7.6,3.1c-1.4,1.2-2.3,3.1-2.4,5.1
			c-0.1,2,0.6,3.8,1.9,4.6c0.3,0.2,0.6,0.3,0.9,0.4c1.3,0.4,2.8,0,4.1-1.2C288.3,479.6,288.8,477.1,288.5,475.4z M280.5,481.9
			c-0.4,0.4-0.9,0.4-1.3,0.2c0,0,0,0,0,0c-0.5-0.3-0.5-1-0.5-1.2c0-0.2,0.1-0.9,0.6-1.3c1.7-1.5,3.5-2.2,5.4-2.3
			C284.1,478.3,282.8,479.8,280.5,481.9z"/>
		<g id="XMLID_89_">
		</g>
		<g id="XMLID_88_">
		</g>
		<g id="XMLID_87_">
		</g>
		<g id="XMLID_86_">
		</g>
		<g id="XMLID_85_">
		</g>
		<g id="XMLID_84_">
		</g>
		<g id="XMLID_83_">
		</g>
		<g id="XMLID_82_">
		</g>
		<g id="XMLID_81_">
		</g>
		<g id="XMLID_80_">
		</g>
		<g id="XMLID_79_">
		</g>
		<g id="XMLID_78_">
		</g>
		<g id="XMLID_77_">
		</g>
		<g id="XMLID_76_">
		</g>
		<g id="XMLID_201_">
		</g>
	</g>
	<g id="XMLID_254_">
		<g id="XMLID_296_">
			<g id="XMLID_297_">
				<path id="XMLID_298_" d="M278.7,354c-0.6-0.2-1.2,0-1.7,0.7l-2.8,4.5l-3.4-4c-0.4-0.6-1.2-0.6-1.7-0.4c-0.6,0.2-0.8,0.9-0.7,1.5
					l0.8,11.3c0.1,0.9,0.7,1.4,1.5,1.3c0.8-0.1,1.4-0.7,1.3-1.5l-0.5-7.1l1.9,2.1c0.6,0.8,1.8,0.7,2.3-0.2l1.5-2.4l0.5,7.1
					c0.1,0.9,0.7,1.4,1.5,1.3c0.8-0.1,1.4-0.7,1.3-1.5l-0.8-11.3C279.6,354.8,279.3,354.3,278.7,354z"/>
			</g>
		</g>
		<g id="XMLID_293_">
			<g id="XMLID_294_">
				<path id="XMLID_295_" d="M299.8,355c1.7-0.1,2.6,0.8,2.9,1.2c0.8,1,1.3,1.2,2,0.9c0.9-0.4,0.9-0.9,0.8-1.4
					c-0.5-2.2-2.8-3.8-5.9-3.5c-3.1,0.2-5.5,2.4-5.3,4.7c0.2,2.3,2,3.5,5.4,3.8l0.6,0c2.3,0.1,2.9,0.6,2.9,1.3
					c0.1,0.9-1.3,1.7-3,1.8c-1.7,0.1-2.6-0.7-2.9-1.2c-0.6-0.8-1-1.4-1.5-1.3c-0.8,0.1-1.5,0.9-1.3,1.5c0.6,2.1,2.8,3.8,5.9,3.5
					c3.1-0.2,5.5-2.4,5.3-4.7c-0.2-2.3-1.9-3.5-5.4-3.8l-0.3,0c-2.6-0.1-2.9-0.8-2.9-1.2C297,356.1,298.1,355.2,299.8,355z"/>
			</g>
		</g>
		<g id="XMLID_290_">
			<g id="XMLID_291_">
				<path id="XMLID_292_" d="M329.8,361.6l-4.2,0.3l-0.7-9.9c-0.1-0.9-0.7-1.4-1.5-1.3c-0.8,0.1-1.4,0.7-1.3,1.5l0.8,11.3
					c0.1,0.9,0.7,1.4,1.5,1.3l5.6-0.4c0.8-0.1,1.4-0.7,1.3-1.5S330.6,361.6,329.8,361.6z"/>
			</g>
		</g>
		<g id="XMLID_285_">
			<g id="XMLID_286_">
				<path id="XMLID_287_" d="M319.6,362.7c0.2-0.6,0.2-1.2,0.2-1.7l-0.4-5.7h0c-0.2-2.3-2.3-4.1-4.5-3.9l-2.8,0.2
					c-2.3,0.2-4.1,2.3-3.9,4.6l0.4,5.7c0.2,2.3,2.3,4.1,4.5,3.9c0.7-0.1,2.1-0.2,2.8-0.2c0.6,0,1.1-0.4,1.7-0.7
					c0.3,0.3,0.7,0.5,1.2,0.5c0.3,0,0.8-0.3,1-0.6C320.3,364,320.2,363.2,319.6,362.7z M316.9,360.6L316.9,360.6l-0.3-0.3
					c-0.6-0.5-1.5-0.5-2,0.1s-0.5,1.5,0.1,2l0.3,0.3l-2.3,0.2c-0.8,0.1-1.5-0.5-1.5-1.3l-0.4-5.7c-0.1-0.9,0.5-1.5,1.3-1.5l2.8-0.2
					c0.8-0.1,1.5,0.5,1.5,1.3L316.9,360.6L316.9,360.6L316.9,360.6z"/>
			</g>
		</g>
		<g id="XMLID_282_">
			<g id="XMLID_283_">
				<path id="XMLID_284_" d="M290.4,358.9c-0.5-0.3-1.6,0-1.9,0.7l-1.5,3.2l-1.9-3c-0.3-0.5-1.2-0.8-2-0.4c-0.6,0.3-0.8,1.2-0.4,2
					l2.9,4.9l-2.2,5.3c-0.3,0.6,0.2,1.4,1.1,1.6c0.6,0.1,1.3,0.3,1.8-0.7l4.8-11.8C291.4,360.2,291.1,359.3,290.4,358.9z"/>
			</g>
		</g>
		<g id="XMLID_279_">
			<g id="XMLID_280_">
				<path id="XMLID_281_" d="M316.8,319.7c-0.6-0.3-1.4-0.3-1.7,0.1c-4.2,3-10.5,4.9-17.9,5.5c-7.3,0.5-14.2-0.4-18.5-2.8
					c-0.9-0.5-1.6-0.1-1.9,0.1c-0.5,0.4-0.8,0.8-0.5,1.8c1.9,5.6,11.9,7.4,21.6,6.7s19.5-4,19.7-9.5
					C317.7,320.7,317.1,319.9,316.8,319.7z"/>
			</g>
		</g>
		<g id="XMLID_276_">
			<g id="XMLID_277_">
				<path id="XMLID_278_" d="M317.4,328.5c-0.6-0.3-1.4-0.3-1.7,0.1c-4.2,3-10.5,4.9-17.9,5.5c-7.3,0.5-14.2-0.4-18.5-2.8
					c-0.9-0.5-1.6-0.1-1.9,0.1c-0.5,0.4-0.8,0.8-0.5,1.8c1.9,5.6,11.9,7.4,21.6,6.7s19.5-4,19.7-9.5
					C318.4,329.6,317.8,328.7,317.4,328.5z"/>
			</g>
		</g>
		<g id="XMLID_273_">
			<g id="XMLID_274_">
				<path id="XMLID_275_" d="M318.1,337.5c-0.6-0.3-1.4-0.3-1.7,0.1c-4.2,3-10.5,4.9-17.9,5.5c-7.3,0.5-14.2-0.4-18.5-2.8
					c-0.9-0.5-1.6-0.1-1.9,0.1c-0.5,0.4-0.8,0.8-0.5,1.8c1.9,5.6,11.9,7.4,21.6,6.7c9.7-0.7,19.5-4,19.7-9.5
					C319.1,338.5,318.5,337.7,318.1,337.5z"/>
			</g>
		</g>
		<g id="XMLID_270_">
			<g id="XMLID_271_">
				<path id="XMLID_272_" d="M295.7,304.6c-10,0.7-20.3,4.8-19.9,10.4c0.4,5.6,11.2,8.1,21.2,7.3s20.3-4.8,19.9-10.4
					C316.5,306.3,305.7,303.8,295.7,304.6z"/>
			</g>
		</g>
		<g id="XMLID_269_">
		</g>
		<g id="XMLID_268_">
		</g>
		<g id="XMLID_267_">
		</g>
		<g id="XMLID_266_">
		</g>
		<g id="XMLID_265_">
		</g>
		<g id="XMLID_264_">
		</g>
		<g id="XMLID_263_">
		</g>
		<g id="XMLID_262_">
		</g>
		<g id="XMLID_261_">
		</g>
		<g id="XMLID_260_">
		</g>
		<g id="XMLID_259_">
		</g>
		<g id="XMLID_258_">
		</g>
		<g id="XMLID_257_">
		</g>
		<g id="XMLID_256_">
		</g>
		<g id="XMLID_255_">
		</g>
	</g>
	<text id="XMLID_250_" transform="matrix(0.2485 0.5481 -0.9108 0.4129 313.1145 374.4662)" class="st10 st16">$ sudo apt-get</text>
	<text id="XMLID_251_" transform="matrix(0.8174 0 0 1 261.454 193.2097)"><tspan x="0" y="0" class="st10 st17">i</tspan><tspan x="3.8" y="0" class="st1 st10 st17"> </tspan><tspan x="9.1" y="0" class="st10 st17">am root</tspan></text>
	<g id="XMLID_202_">
		<path id="XMLID_203_" class="st18" d="M196.3,272.7l0-8.3l2.8-1.8c0.4-0.3,0.7-0.8,0.7-1.4l0-3.6c0-0.7-0.5-1.2-1.1-1.2l-1.2,0
			l0-2.9l2.8,0c2.2,0,4-2.1,4-4.6c0-2.6-1.8-4.6-4-4.6l-47-0.1l0-2c0-0.5-0.2-1-0.5-1.3l-1.3-1.2l-1.7-1.6c-0.4-0.4-1-0.4-1.4,0
			l-1.7,1.6l-1.3,1.2c-0.3,0.3-0.5,0.8-0.5,1.3l0,2l-58.7-0.2c-0.1-0.4-0.1-0.7-0.2-1c-0.2-0.7-0.7-1.2-1.4-1.2l-3,0l0,0
			c-2.4-8.3-9.2-14.2-17.2-14.3c-10.1,0-18.3,9.4-18.3,21.1c0,11.7,8.1,21.1,18.2,21.1c8,0,14.8-5.9,17.3-14.2l0,0l3,0
			c0.7,0,1.2-0.5,1.4-1.2c0.1-0.3,0.1-0.6,0.2-1l0,0l58.7,0.2l0,2c0,0.5,0.2,1,0.5,1.3l1.3,1.2l1.7,1.6c0.4,0.4,1,0.4,1.4,0l1.7-1.6
			l1.3-1.2c0.3-0.3,0.5-0.8,0.5-1.3l0-2l11.6,0l9.6,0l0,2.9l-1.2,0c-0.6,0-1.1,0.5-1.1,1.2l0,3.6c0,0.6,0.3,1.1,0.7,1.4l2.8,1.8
			l0,8.3c0,0.5,0.3,0.8,0.7,0.8l2.7,0c0.4,0,0.7-0.4,0.7-0.8l0-7.5c0-0.5-0.2-1-0.6-1.3l-1.4-1.4c-0.5-0.4-0.7-1.1-0.7-1.8
			c0-0.6,0.2-1.2,0.6-1.6c0.2-0.3,0.6-0.5,0.9-0.6l3.8,4.4l0,9.1c0,0.8,0.6,1.5,1.3,1.5l4.5,0c0.7,0,1.3-0.7,1.3-1.5l0-9.1l3.8-4.4
			c0.3,0.1,0.6,0.3,0.9,0.6c0.4,0.4,0.6,1,0.6,1.6c0,0.7-0.3,1.3-0.7,1.8l-1.5,1.4c-0.4,0.3-0.6,0.8-0.6,1.3l0,7.5
			c0,0.5,0.3,0.8,0.7,0.8l2.7,0C196,273.5,196.3,273.2,196.3,272.7z"/>
	</g>
	<polygon id="XMLID_205_" class="st1" points="113.5,181.2 113.5,334.2 164.8,334.2 164.8,209.7 212.2,208.5 212.2,181.2 	"/>
	<g id="XMLID_308_">
		<polygon id="XMLID_208_" class="st19" points="219.4,0 241.2,80.9 261.1,77.4 249.3,0 		"/>
		<polygon id="XMLID_211_" class="st19" points="264.9,0 280.5,74.4 291.8,74.4 295.6,0 		"/>
		<polygon id="XMLID_212_" class="st19" points="313.9,0 320.1,74.4 331.3,74.4 341.6,0 		"/>
		<polygon id="XMLID_213_" class="st19" points="355,0 355,79 366.7,79 386.2,0 		"/>
		<polygon id="XMLID_214_" class="st19" points="404.4,0 386.2,86.4 404.4,92.4 438.6,0 		"/>
		<polygon id="XMLID_215_" class="st19" points="454.9,0 420.6,98.9 437.7,107.1 493.9,0 		"/>
		<polygon id="XMLID_216_" class="st19" points="514.9,0 462.7,121.5 474.1,129.2 550.7,0 		"/>
		<polygon id="XMLID_217_" class="st19" points="566.3,0 493.9,144.7 505,154.6 600.8,0 		"/>
		<polygon id="XMLID_218_" class="st19" points="612,15.4 523.8,173.8 533.9,185.7 612,64.6 		"/>
		<polygon id="XMLID_219_" class="st19" points="612,107.1 547.4,203.8 554.5,214.6 612,154.6 		"/>
		<polygon id="XMLID_220_" class="st19" points="612,181.2 562.9,228.9 569.4,241.3 612,219.3 		"/>
		<polygon id="XMLID_221_" class="st19" points="612,244.4 579.7,258.4 583.1,273.5 612,273.5 		"/>
		<polygon id="XMLID_222_" class="st19" points="612,289.5 589.5,293.5 592.3,304.5 612,306.8 		"/>
		<polygon id="XMLID_223_" class="st19" points="612,319.4 596.6,325.3 598.4,337.2 612,340.1 		"/>
		<polygon id="XMLID_224_" class="st19" points="612,362.9 600.7,365.7 600.8,376.4 612,381.3 		"/>
		<polygon id="XMLID_225_" class="st19" points="195.2,0 212.2,88.6 195.2,92.4 162.9,0 		"/>
		<polygon id="XMLID_226_" class="st19" points="138.6,0 175.5,100.6 157.1,113 107.1,0 		"/>
		<polygon id="XMLID_227_" class="st19" points="91.3,0 135.5,126.5 120.7,137.4 59.7,0 		"/>
		<polygon id="XMLID_228_" class="st19" points="46.1,0 107.1,148.7 97.6,154.6 0,0 		"/>
		<polygon id="XMLID_229_" class="st19" points="0,31.2 81.3,174.4 71.8,185.7 0,92.4 		"/>
		<polygon id="XMLID_230_" class="st19" points="0,129.2 61,199.9 51.1,214.6 0,173.8 		"/>
		<polygon id="XMLID_231_" class="st19" points="0,199.9 39.2,235.5 30.5,251 0,234.2 		"/>
		<polygon id="XMLID_232_" class="st19" points="0,252.7 22.5,273.5 17.3,289.5 0,281.8 		"/>
		<polygon id="XMLID_233_" class="st19" points="0,319.4 9.5,322.4 4.8,340.1 		"/>
		<polygon id="XMLID_234_" class="st19" points="8.5,424.4 0,427.5 0,447.3 9.5,441 		"/>
		<polygon id="XMLID_235_" class="st19" points="0,462.9 14.7,453.9 19.6,470.6 0,497.3 		"/>
		<polygon id="XMLID_236_" class="st19" points="0,514.5 27.1,491.3 33.3,505.3 0,559.8 		"/>
		<polygon id="XMLID_237_" class="st19" points="0,579 46.1,529.9 53.5,544.7 0,635.2 		"/>
		<polygon id="XMLID_241_" class="st19" points="0,653.6 70.2,565.2 81.8,579 0,712.8 		"/>
		<polygon id="XMLID_242_" class="st19" points="0,737.8 97.6,595.4 107.1,604.1 0,792 		"/>
		<polygon id="XMLID_243_" class="st19" points="16.6,792 125.2,618.9 141.3,630.2 61,792 		"/>
		<polygon id="XMLID_244_" class="st19" points="78.9,792 162.9,643.1 175.5,649.5 125.2,792 		"/>
		<polygon id="XMLID_245_" class="st19" points="149.2,792 204.4,659.6 219.4,666.4 184.3,792 		"/>
		<polygon id="XMLID_246_" class="st19" points="204.4,792 241.2,671.9 257.6,674.9 241.2,792 		"/>
		<polygon id="XMLID_247_" class="st19" points="262.3,792 277,678.4 290.1,678.1 293.9,792 		"/>
		<polygon id="XMLID_248_" class="st19" points="308.1,792 317.7,678.4 331.3,677 341.6,792 		"/>
		<polygon id="XMLID_249_" class="st19" points="355,792 357.6,673.3 370.6,670.5 392.6,792 		"/>
		<polygon id="XMLID_253_" class="st19" points="407.1,792 386.2,666.4 406.5,659.6 445.2,792 		"/>
		<polygon id="XMLID_299_" class="st19" points="457.2,792 431.6,648.8 444.4,639 506.7,792 		"/>
		<polygon id="XMLID_300_" class="st19" points="523.8,792 469.1,627 480.4,618.9 572.8,792 		"/>
		<polygon id="XMLID_301_" class="st19" points="589.5,792 505,598.2 512.7,590.8 612,792 		"/>
		<polygon id="XMLID_302_" class="st19" points="612,760.2 530.9,570.8 542.8,555.5 612,683.8 		"/>
		<polygon id="XMLID_303_" class="st19" points="612,643.1 553.9,539.2 562.6,524.4 612,579 		"/>
		<polygon id="XMLID_304_" class="st19" points="612,555.5 572.8,502.1 579.7,484.4 612,522.1 		"/>
		<polygon id="XMLID_305_" class="st19" points="612,497.3 587.5,471.9 589.5,460.5 612,463.3 		"/>
		<polygon id="XMLID_306_" class="st19" points="612,446.5 594.7,437.8 597.1,424.4 612,417.2 		"/>
		<polyline id="XMLID_307_" class="st19" points="600.7,402.2 612,404.1 612,392 600.5,392 		"/>
	</g>
	<g id="XMLID_355_">
		<polygon id="XMLID_310_" class="st20" points="91.3,0 135.5,126.5 157.1,113 107.1,0 		"/>
		<polygon id="XMLID_311_" class="st20" points="175.5,100.6 138.6,0 162.9,0 195.2,92.4 		"/>
		<polygon id="XMLID_312_" class="st20" points="212.2,88.6 241.2,80.9 219.4,0 195.2,0 		"/>
		<polygon id="XMLID_313_" class="st20" points="261.1,77.4 280.5,74.4 264.9,0 249.3,0 		"/>
		<polygon id="XMLID_314_" class="st20" points="291.8,74.4 320.1,74.4 313.9,0 295.6,0 		"/>
		<polygon id="XMLID_315_" class="st20" points="331.3,74.4 355,79 355,0 341.6,0 		"/>
		<polygon id="XMLID_316_" class="st20" points="107.1,148.7 120.7,137.4 59.7,0 46.1,0 		"/>
		<polygon id="XMLID_317_" class="st20" points="97.6,154.6 0,0 0,31.2 81.3,174.4 		"/>
		<polygon id="XMLID_318_" class="st20" points="71.8,185.7 0,92.4 0,129.2 61,199.9 		"/>
		<polygon id="XMLID_319_" class="st20" points="51.1,214.6 0,173.8 0,199.9 39.2,235.5 		"/>
		<polygon id="XMLID_320_" class="st20" points="30.5,251 0,234.2 0,252.7 22.5,273.5 		"/>
		<polygon id="XMLID_321_" class="st20" points="17.3,289.5 0,281.8 0,319.4 9.5,322.4 		"/>
		<polygon id="XMLID_322_" class="st20" points="9.5,441 0,447.3 0,462.9 14.7,453.9 		"/>
		<polygon id="XMLID_323_" class="st20" points="19.6,470.6 0,497.3 0,514.5 27.1,491.3 		"/>
		<polygon id="XMLID_325_" class="st20" points="33.3,505.3 0,559.8 4.8,573.9 46.1,529.9 		"/>
		<polygon id="XMLID_324_" class="st20" points="53.5,544.7 0,635.2 0,653.6 70.2,565.2 		"/>
		<polygon id="XMLID_326_" class="st20" points="81.8,579 0,712.8 0,737.8 97.6,595.4 		"/>
		<polygon id="XMLID_327_" class="st20" points="107.1,604.1 0,792 16.6,792 125.2,618.9 		"/>
		<polygon id="XMLID_328_" class="st20" points="141.3,630.2 61,792 78.9,792 162.9,643.1 		"/>
		<polygon id="XMLID_329_" class="st20" points="175.5,649.5 125.2,792 149.2,792 204.4,659.6 		"/>
		<polygon id="XMLID_330_" class="st20" points="219.4,666.4 184.3,792 204.4,792 241.2,671.9 		"/>
		<polygon id="XMLID_331_" class="st20" points="257.6,674.9 241.2,792 262.3,792 277,678.4 		"/>
		<polygon id="XMLID_332_" class="st20" points="290.1,678.1 293.9,792 308.1,792 317.7,678.4 		"/>
		<polygon id="XMLID_333_" class="st20" points="331.3,677 341.6,792 355,792 357.6,673.3 		"/>
		<polygon id="XMLID_334_" class="st20" points="370.6,670.5 392.6,792 407.1,792 386.2,666.4 		"/>
		<polygon id="XMLID_335_" class="st20" points="406.5,659.6 445.2,792 457.2,792 431.6,648.8 		"/>
		<polygon id="XMLID_336_" class="st20" points="444.4,639 506.7,792 523.8,792 469.1,627 		"/>
		<polygon id="XMLID_337_" class="st20" points="480.4,618.9 572.8,792 589.5,792 505,598.2 		"/>
		<polygon id="XMLID_338_" class="st20" points="512.7,590.8 612,792 612,760.2 530.9,570.8 		"/>
		<polygon id="XMLID_339_" class="st20" points="553.9,539.2 542.8,555.5 612,683.8 612,643.1 		"/>
		<polygon id="XMLID_340_" class="st20" points="562.6,524.4 612,579 612,555.5 572.8,502.1 		"/>
		<polygon id="XMLID_341_" class="st20" points="579.7,484.4 612,522.1 612,497.3 587.5,471.9 		"/>
		<polygon id="XMLID_342_" class="st20" points="366.7,79 386.2,0 404.4,0 386.2,86.4 		"/>
		<polygon id="XMLID_343_" class="st20" points="438.6,0 404.4,92.4 420.6,98.9 454.9,0 		"/>
		<polygon id="XMLID_344_" class="st20" points="493.9,0 437.7,107.1 462.7,121.5 514.9,0 		"/>
		<polygon id="XMLID_345_" class="st20" points="474.1,129.2 550.7,0 566.3,0 493.9,144.7 		"/>
		<polygon id="XMLID_347_" class="st20" points="600.8,0 505,154.6 523.8,173.8 612,15.4 612,0 		"/>
		<polygon id="XMLID_346_" class="st20" points="612,64.6 533.9,185.7 547.4,203.8 612,107.1 		"/>
		<polygon id="XMLID_348_" class="st20" points="612,154.6 554.5,214.6 562.9,228.9 612,181.2 		"/>
		<polygon id="XMLID_349_" class="st21" points="612,219.3 569.4,241.3 579.7,258.4 612,244.4 		"/>
		<polygon id="XMLID_350_" class="st20" points="612,273.5 583.1,273.5 589.5,293.5 612,289.5 		"/>
		<polygon id="XMLID_351_" class="st20" points="612,306.8 592.3,304.5 596.6,325.3 612,319.4 		"/>
		<polygon id="XMLID_352_" class="st20" points="612,340.1 598.4,337.2 600.7,365.7 612,362.9 		"/>
		<polygon id="XMLID_353_" class="st21" points="612,446.5 594.7,437.8 589.5,460.5 612,463.3 		"/>
		<path id="XMLID_354_" class="st21" d="M612,404.1"/>
	</g>
	<text id="XMLID_207_" transform="matrix(1 0 0 1 196.5263 648.369)" class="st1 st22 st23">of IIIT KALYANI</text>
</g>
</svg>
